<?xml version="1.0" encoding="UTF-8"?>
<svg xmlns="http://www.w3.org/2000/svg" style="stroke-dasharray:none; shape-rendering:auto; font-family:'Arial'; text-rendering:auto; fill-opacity:1; color-interpolation:auto; color-rendering:auto; font-size:12; fill:black; stroke:black; image-rendering:auto; stroke-miterlimit:10; stroke-linecap:square; stroke-linejoin:miter; font-style:normal; stroke-width:1; stroke-dashoffset:0; font-weight:normal; stroke-opacity:1;" contentScriptType="text/ecmascript" preserveAspectRatio="xMidYMid meet" zoomAndPan="magnify" version="1.0" contentStyleType="text/css" xml:xlink="http://www.w3.org/1999/xlink" width="1055" height="444"><g sequence="1"><ellipse cx="238" cy="84" rx="17" ry="17" stroke-width="1" style="fill:url(#linearGradient66FF6696FF96B6FFB6_994458998);" stroke="336633" /></g><g sequence="4"><polygon points=" 209 180 239 150 269 180 239 210 209 180" style="fill:url(#linearGradientFAFBFCFFFFCC_676375248);" stroke="000000" /></g><g componentSequence="4"><text x="239" y="213" text-anchor="middle" style="font-weight:bold;font-size:10px;stroke:none; fill:#333399"><tspan dy="14" x="239">Valor?</tspan></text></g><g sequence="6"><rect x="67" y="251" width="106" height="70" ry="5" rx="5" style="fill:url(#linearGradientF8FBFEEDF5FCDEEDFAD4E7F8E2E5E9_425951939);" stroke="191970" /></g><g componentSequence="6"><text x="120" y="266" text-anchor="middle" style="font-weight:bold;font-size:10px;stroke:none; fill:#333399"><tspan dy="14" x="120">Aprovação</tspan><tspan dy="14" x="120">Coordenador</tspan></text></g><g sequence="8"><rect x="200" y="251" width="106" height="70" ry="5" rx="5" style="fill:url(#linearGradientF8FBFEEDF5FCDEEDFAD4E7F8E2E5E9_287408356);" stroke="191970" /></g><g componentSequence="8"><text x="253" y="266" text-anchor="middle" style="font-weight:bold;font-size:10px;stroke:none; fill:#333399"><tspan dy="14" x="253">Aprovação</tspan><tspan dy="14" x="253">Gerente</tspan></text></g><g sequence="10"><rect x="352" y="251" width="106" height="70" ry="5" rx="5" style="fill:url(#linearGradientF8FBFEEDF5FCDEEDFAD4E7F8E2E5E9_461808187);" stroke="191970" /></g><g componentSequence="10"><text x="405" y="266" text-anchor="middle" style="font-weight:bold;font-size:10px;stroke:none; fill:#333399"><tspan dy="14" x="405">Aprovação</tspan><tspan dy="14" x="405">Diretor</tspan></text></g><g sequence="12"><polygon points=" 222 372 252 342 282 372 252 402 222 372" style="fill:url(#linearGradientFAFBFCFFFFCC_917343665);" stroke="000000" /></g><g componentSequence="12"><text x="252" y="412" text-anchor="middle" style="font-weight:bold;font-size:10px;stroke:none; fill:#333399"><tspan dy="14" x="252">Aprovad</tspan><tspan dy="14" x="252">o?</tspan></text></g><g sequence="14"><ellipse cx="107" cy="392" rx="17" ry="17" stroke-width="3" style="fill:url(#linearGradientFF6666FF9696FFB6B6_870147133);" stroke="993333" /></g><g sequence="18"><rect x="352" y="351" width="106" height="84" ry="5" rx="5" style="fill:url(#linearGradientF8FBFEEDF5FCDEEDFAD4E7F8E2E5E9_786883586);" stroke="191970" /></g><g componentSequence="18"><text x="405" y="366" text-anchor="middle" style="font-weight:bold;font-size:10px;stroke:none; fill:#333399"><tspan dy="14" x="405">Preenchimento</tspan><tspan dy="14" x="405">do Escopo do</tspan><tspan dy="14" x="405">Fornecimento</tspan></text></g><g sequence="20"><rect x="510" y="358" width="106" height="70" ry="5" rx="5" style="fill:url(#linearGradientF8FBFEEDF5FCDEEDFAD4E7F8E2E5E9_6229151);" stroke="191970" /></g><g componentSequence="20"><text x="563" y="373" text-anchor="middle" style="font-weight:bold;font-size:10px;stroke:none; fill:#333399"><tspan dy="14" x="563">Seleção dos</tspan><tspan dy="14" x="563">Fornecedores</tspan></text></g><g sequence="24"><rect x="510" y="160" width="106" height="112" ry="5" rx="5" style="fill:url(#linearGradientF8FBFEEDF5FCDEEDFAD4E7F8E2E5E9_1522911520);" stroke="191970" /></g><g componentSequence="24"><text x="563" y="175" text-anchor="middle" style="font-weight:bold;font-size:10px;stroke:none; fill:#333399"><tspan dy="14" x="563">Análise do</tspan><tspan dy="14" x="563">Retorno dos</tspan><tspan dy="14" x="563">Fornecedores /</tspan><tspan dy="14" x="563">Análise Comitê</tspan></text></g><g sequence="27"><polygon points=" 533 32 563 2 593 32 563 62 533 32" style="fill:url(#linearGradientFAFBFCFFFFCC_48345801);" stroke="000000" /></g><g componentSequence="27"><text x="563" y="72" text-anchor="middle" style="font-weight:bold;font-size:10px;stroke:none; fill:#333399"><tspan dy="14" x="563">Aprovad</tspan><tspan dy="14" x="563">o?</tspan></text></g><g sequence="30"><rect x="690" y="19" width="106" height="70" ry="5" rx="5" style="fill:url(#linearGradientF8FBFEEDF5FCDEEDFAD4E7F8E2E5E9_457085027);" stroke="191970" /></g><g componentSequence="30"><text x="743" y="34" text-anchor="middle" style="font-weight:bold;font-size:10px;stroke:none; fill:#333399"><tspan dy="14" x="743">Propecto</tspan><tspan dy="14" x="743">Contratual</tspan></text></g><g sequence="32"><rect x="690" y="116" width="106" height="98" ry="5" rx="5" style="fill:url(#linearGradientF8FBFEEDF5FCDEEDFAD4E7F8E2E5E9_1677544559);" stroke="191970" /></g><g componentSequence="32"><text x="743" y="131" text-anchor="middle" style="font-weight:bold;font-size:10px;stroke:none; fill:#333399"><tspan dy="14" x="743">Implanta</tspan><tspan dy="14" x="743">Contrato em</tspan><tspan dy="14" x="743">base do</tspan><tspan dy="14" x="743">Propecto</tspan></text></g><g sequence="34"><rect x="690" y="237" width="106" height="98" ry="5" rx="5" style="fill:url(#linearGradientF8FBFEEDF5FCDEEDFAD4E7F8E2E5E9_386205177);" stroke="191970" /></g><g componentSequence="34"><text x="743" y="252" text-anchor="middle" style="font-weight:bold;font-size:10px;stroke:none; fill:#333399"><tspan dy="14" x="743">Aponta</tspan><tspan dy="14" x="743">recebimento do</tspan><tspan dy="14" x="743">documento</tspan><tspan dy="14" x="743">assinado</tspan></text></g><g sequence="36"><rect x="690" y="351" width="106" height="84" ry="5" rx="5" style="fill:url(#linearGradientF8FBFEEDF5FCDEEDFAD4E7F8E2E5E9_419269162);" stroke="191970" /></g><g componentSequence="36"><text x="743" y="366" text-anchor="middle" style="font-weight:bold;font-size:10px;stroke:none; fill:#333399"><tspan dy="14" x="743">Implanta</tspan><tspan dy="14" x="743">documento</tspan><tspan dy="14" x="743">digitalizado</tspan></text></g><g sequence="38"><rect x="860" y="352" width="106" height="84" ry="5" rx="5" style="fill:url(#linearGradientF8FBFEEDF5FCDEEDFAD4E7F8E2E5E9_1999613150);" stroke="191970" /></g><g componentSequence="38"><text x="913" y="367" text-anchor="middle" style="font-weight:bold;font-size:10px;stroke:none; fill:#333399"><tspan dy="14" x="913">Implanta</tspan><tspan dy="14" x="913">Contrato no ERP</tspan></text></g><g sequence="40"><ellipse cx="1037" cy="393" rx="17" ry="17" stroke-width="3" style="fill:url(#linearGradientFF6666FF9696FFB6B6_2117605472);" stroke="993333" /></g><g componentSequence="7"><text x="146" y="170" style="font-size:10px;font-weight:none;stroke:none; fill:#333399" text-anchor="left"><tspan dy="14" x="146">Até R$ 5 mil</tspan></text></g><g componentSequence="9"><text x="193" y="225" style="font-size:10px;font-weight:none;stroke:none; fill:#333399" text-anchor="left"><tspan dy="14" x="193">Entre R$ 5 a R$ 15 mil</tspan></text></g><g componentSequence="11"><text x="284" y="170" style="font-size:10px;font-weight:none;stroke:none; fill:#333399" text-anchor="left"><tspan dy="14" x="284">Mais de R$ 15 mil</tspan></text></g><g componentSequence="13"><text x="262" y="331" style="font-size:10px;font-weight:none;stroke:none; fill:#333399" text-anchor="left" /></g><g componentSequence="15"><text x="183" y="392" style="font-size:10px;font-weight:none;stroke:none; fill:#333399" text-anchor="left" /></g><g componentSequence="16"><text x="202" y="345" style="font-size:10px;font-weight:none;stroke:none; fill:#333399" text-anchor="left" /></g><g componentSequence="17"><text x="328" y="346" style="font-size:10px;font-weight:none;stroke:none; fill:#333399" text-anchor="left" /></g><g componentSequence="19"><text x="327" y="393" style="font-size:10px;font-weight:none;stroke:none; fill:#333399" text-anchor="left" /></g><g componentSequence="21"><text x="494" y="393" style="font-size:10px;font-weight:none;stroke:none; fill:#333399" text-anchor="left" /></g><g componentSequence="28"><text x="573" y="132" style="font-size:10px;font-weight:none;stroke:none; fill:#333399" text-anchor="left" /></g><g componentSequence="29"><text x="473" y="61" style="font-size:10px;font-weight:none;stroke:none; fill:#333399" text-anchor="left"><tspan dy="14" x="473">não</tspan></text></g><g componentSequence="31"><text x="630" y="35" style="font-size:10px;font-weight:none;stroke:none; fill:#333399" text-anchor="left"><tspan dy="14" x="630">sim</tspan></text></g><g componentSequence="33"><text x="753" y="102" style="font-size:10px;font-weight:none;stroke:none; fill:#333399" text-anchor="left" /></g><g componentSequence="35"><text x="753" y="225" style="font-size:10px;font-weight:none;stroke:none; fill:#333399" text-anchor="left" /></g><g componentSequence="37"><text x="753" y="343" style="font-size:10px;font-weight:none;stroke:none; fill:#333399" text-anchor="left" /></g><g componentSequence="39"><text x="838" y="393" style="font-size:10px;font-weight:none;stroke:none; fill:#333399" text-anchor="left" /></g><g componentSequence="41"><text x="1003" y="393" style="font-size:10px;font-weight:none;stroke:none; fill:#333399" text-anchor="left" /></g><g componentSequence="43"><text x="573" y="315" style="font-size:10px;font-weight:none;stroke:none; fill:#333399" text-anchor="left" /></g><g componentSequence="42"><text x="248" y="126" style="font-size:10px;font-weight:none;stroke:none; fill:#333399" text-anchor="left" /></g><path style="fill:none; stroke:#000000;stroke-width:1" d="M238.0 101.0 L238.0 149.0" /><polygon style="fill:#000000; stroke:#000000;" points=" 243 139 238 149 233 139 238 141" /><path style="fill:none; stroke:#000000;stroke-width:1" d="M208.0 194.0 L119.0 194.0 L119.0 250.0" /><polygon style="fill:#000000; stroke:#000000;" points=" 124 240 119 250 114 240 119 242" /><path style="fill:none; stroke:#000000;stroke-width:1" d="M245.0 238.0 L247.0 250.0" /><polygon style="fill:#000000; stroke:#000000;" points=" 250 239 247 250 240 241 246 242" /><path style="fill:none; stroke:#000000;stroke-width:1" d="M269.0 194.0 L403.0 194.0 L404.0 250.0" /><polygon style="fill:#000000; stroke:#000000;" points=" 409 240 404 250 399 240 404 242" /><path style="fill:none; stroke:#000000;stroke-width:1" d="M163.0 321.0 L221.0 368.0" /><polygon style="fill:#000000; stroke:#000000;" points=" 216 358 221 368 210 366 215 363" /><path style="fill:none; stroke:#000000;stroke-width:1" d="M252.0 321.0 L252.0 341.0" /><polygon style="fill:#000000; stroke:#000000;" points=" 257 331 252 341 247 331 252 333" /><path style="fill:none; stroke:#000000;stroke-width:1" d="M354.0 321.0 L282.0 371.0" /><polygon style="fill:#000000; stroke:#000000;" points=" 293 369 282 371 287 361 289 366" /><path style="fill:none; stroke:#000000;stroke-width:1" d="M221.0 392.0 L124.0 392.0" /><polygon style="fill:#000000; stroke:#000000;" points=" 134 397 124 392 134 387 132 392" /><path style="fill:none; stroke:#000000;stroke-width:1" d="M282.0 393.0 L351.0 393.0" /><polygon style="fill:#000000; stroke:#000000;" points=" 341 388 351 393 341 398 343 393" /><path style="fill:none; stroke:#000000;stroke-width:1" d="M458.0 393.0 L509.0 393.0" /><polygon style="fill:#000000; stroke:#000000;" points=" 499 388 509 393 499 398 501 393" /><path style="fill:none; stroke:#000000;stroke-width:1" d="M563.0 159.0 L563.0 104.0" /><polygon style="fill:#000000; stroke:#000000;" points=" 558 114 563 104 568 114 563 112" /><path style="fill:none; stroke:#000000;stroke-width:1" d="M532.0 52.0 L457.0 52.0 L457.0 216.0 L509.0 216.0" /><polygon style="fill:#000000; stroke:#000000;" points=" 499 211 509 216 499 221 501 216" /><path style="fill:none; stroke:#000000;stroke-width:1" d="M593.0 53.0 L689.0 53.0" /><polygon style="fill:#000000; stroke:#000000;" points=" 679 48 689 53 679 58 681 53" /><path style="fill:none; stroke:#000000;stroke-width:1" d="M743.0 89.0 L743.0 115.0" /><polygon style="fill:#000000; stroke:#000000;" points=" 748 105 743 115 738 105 743 107" /><path style="fill:none; stroke:#000000;stroke-width:1" d="M743.0 214.0 L743.0 236.0" /><polygon style="fill:#000000; stroke:#000000;" points=" 748 226 743 236 738 226 743 228" /><path style="fill:none; stroke:#000000;stroke-width:1" d="M743.0 335.0 L743.0 350.0" /><polygon style="fill:#000000; stroke:#000000;" points=" 748 340 743 350 738 340 743 342" /><path style="fill:none; stroke:#000000;stroke-width:1" d="M796.0 393.0 L859.0 393.0" /><polygon style="fill:#000000; stroke:#000000;" points=" 849 388 859 393 849 398 851 393" /><path style="fill:none; stroke:#000000;stroke-width:1" d="M966.0 393.0 L1020.0 393.0" /><polygon style="fill:#000000; stroke:#000000;" points=" 1010 388 1020 393 1010 398 1012 393" /><path style="fill:none; stroke:#000000;stroke-width:1" d="M563.0 357.0 L563.0 272.0" /><polygon style="fill:#000000; stroke:#000000;" points=" 558 282 563 272 568 282 563 280" /><defs><linearGradient xmlns:xlink="http://www.w3.org/1999/xlink" xlink:href="#linearGradient66FF6696FF96B6FFB6" id="linearGradient66FF6696FF96B6FFB6_994458998" x1="0" y1="67.0" x2="0" y2="102.0" gradientUnits="userSpaceOnUse" xlink:type="simple" xlink:actuate="onLoad" xlink:show="other" /><linearGradient id="linearGradient66FF6696FF96B6FFB6"><stop style="stop-color:#66FF66;stop-opacity:1;" offset="0.0" id="stop66FF66" /><stop style="stop-color:#96FF96;stop-opacity:1;" offset="0.5" id="stop96FF96" /><stop style="stop-color:#B6FFB6;stop-opacity:1;" offset="1.0" id="stopB6FFB6" /></linearGradient><linearGradient xmlns:xlink="http://www.w3.org/1999/xlink" xlink:href="#linearGradientFAFBFCFFFFCC" id="linearGradientFAFBFCFFFFCC_676375248" x1="0" y1="150.0" x2="0" y2="210.0" gradientUnits="userSpaceOnUse" xlink:type="simple" xlink:actuate="onLoad" xlink:show="other" /><linearGradient id="linearGradientFAFBFCFFFFCC"><stop style="stop-color:#FAFBFC;stop-opacity:1;" offset="0.0" id="stopFAFBFC" /><stop style="stop-color:#FFFFCC;stop-opacity:1;" offset="1.0" id="stopFFFFCC" /></linearGradient><linearGradient xmlns:xlink="http://www.w3.org/1999/xlink" xlink:href="#linearGradientF8FBFEEDF5FCDEEDFAD4E7F8E2E5E9" id="linearGradientF8FBFEEDF5FCDEEDFAD4E7F8E2E5E9_425951939" x1="0" y1="251.0" x2="0" y2="357.0" gradientUnits="userSpaceOnUse" xlink:type="simple" xlink:actuate="onLoad" xlink:show="other" /><linearGradient id="linearGradientF8FBFEEDF5FCDEEDFAD4E7F8E2E5E9"><stop style="stop-color:#F8FBFE;stop-opacity:1;" offset="0.0" id="stopF8FBFE" /><stop style="stop-color:#EDF5FC;stop-opacity:1;" offset="0.25" id="stopEDF5FC" /><stop style="stop-color:#DEEDFA;stop-opacity:1;" offset="0.5" id="stopDEEDFA" /><stop style="stop-color:#D4E7F8;stop-opacity:1;" offset="0.75" id="stopD4E7F8" /><stop style="stop-color:#E2E5E9;stop-opacity:1;" offset="1.0" id="stopE2E5E9" /></linearGradient><linearGradient xmlns:xlink="http://www.w3.org/1999/xlink" xlink:href="#linearGradientF8FBFEEDF5FCDEEDFAD4E7F8E2E5E9" id="linearGradientF8FBFEEDF5FCDEEDFAD4E7F8E2E5E9_287408356" x1="0" y1="251.0" x2="0" y2="357.0" gradientUnits="userSpaceOnUse" xlink:type="simple" xlink:actuate="onLoad" xlink:show="other" /><linearGradient xmlns:xlink="http://www.w3.org/1999/xlink" xlink:href="#linearGradientF8FBFEEDF5FCDEEDFAD4E7F8E2E5E9" id="linearGradientF8FBFEEDF5FCDEEDFAD4E7F8E2E5E9_461808187" x1="0" y1="251.0" x2="0" y2="357.0" gradientUnits="userSpaceOnUse" xlink:type="simple" xlink:actuate="onLoad" xlink:show="other" /><linearGradient xmlns:xlink="http://www.w3.org/1999/xlink" xlink:href="#linearGradientFAFBFCFFFFCC" id="linearGradientFAFBFCFFFFCC_917343665" x1="0" y1="342.0" x2="0" y2="402.0" gradientUnits="userSpaceOnUse" xlink:type="simple" xlink:actuate="onLoad" xlink:show="other" /><linearGradient xmlns:xlink="http://www.w3.org/1999/xlink" xlink:href="#linearGradientFF6666FF9696FFB6B6" id="linearGradientFF6666FF9696FFB6B6_870147133" x1="0" y1="375.0" x2="0" y2="410.0" gradientUnits="userSpaceOnUse" xlink:type="simple" xlink:actuate="onLoad" xlink:show="other" /><linearGradient id="linearGradientFF6666FF9696FFB6B6"><stop style="stop-color:#FF6666;stop-opacity:1;" offset="0.0" id="stopFF6666" /><stop style="stop-color:#FF9696;stop-opacity:1;" offset="0.5" id="stopFF9696" /><stop style="stop-color:#FFB6B6;stop-opacity:1;" offset="1.0" id="stopFFB6B6" /></linearGradient><linearGradient xmlns:xlink="http://www.w3.org/1999/xlink" xlink:href="#linearGradientF8FBFEEDF5FCDEEDFAD4E7F8E2E5E9" id="linearGradientF8FBFEEDF5FCDEEDFAD4E7F8E2E5E9_786883586" x1="0" y1="351.0" x2="0" y2="457.0" gradientUnits="userSpaceOnUse" xlink:type="simple" xlink:actuate="onLoad" xlink:show="other" /><linearGradient xmlns:xlink="http://www.w3.org/1999/xlink" xlink:href="#linearGradientF8FBFEEDF5FCDEEDFAD4E7F8E2E5E9" id="linearGradientF8FBFEEDF5FCDEEDFAD4E7F8E2E5E9_6229151" x1="0" y1="358.0" x2="0" y2="464.0" gradientUnits="userSpaceOnUse" xlink:type="simple" xlink:actuate="onLoad" xlink:show="other" /><linearGradient xmlns:xlink="http://www.w3.org/1999/xlink" xlink:href="#linearGradientF8FBFEEDF5FCDEEDFAD4E7F8E2E5E9" id="linearGradientF8FBFEEDF5FCDEEDFAD4E7F8E2E5E9_1522911520" x1="0" y1="160.0" x2="0" y2="266.0" gradientUnits="userSpaceOnUse" xlink:type="simple" xlink:actuate="onLoad" xlink:show="other" /><linearGradient xmlns:xlink="http://www.w3.org/1999/xlink" xlink:href="#linearGradientFAFBFCFFFFCC" id="linearGradientFAFBFCFFFFCC_48345801" x1="0" y1="2.0" x2="0" y2="62.0" gradientUnits="userSpaceOnUse" xlink:type="simple" xlink:actuate="onLoad" xlink:show="other" /><linearGradient xmlns:xlink="http://www.w3.org/1999/xlink" xlink:href="#linearGradientF8FBFEEDF5FCDEEDFAD4E7F8E2E5E9" id="linearGradientF8FBFEEDF5FCDEEDFAD4E7F8E2E5E9_457085027" x1="0" y1="19.0" x2="0" y2="125.0" gradientUnits="userSpaceOnUse" xlink:type="simple" xlink:actuate="onLoad" xlink:show="other" /><linearGradient xmlns:xlink="http://www.w3.org/1999/xlink" xlink:href="#linearGradientF8FBFEEDF5FCDEEDFAD4E7F8E2E5E9" id="linearGradientF8FBFEEDF5FCDEEDFAD4E7F8E2E5E9_1677544559" x1="0" y1="116.0" x2="0" y2="222.0" gradientUnits="userSpaceOnUse" xlink:type="simple" xlink:actuate="onLoad" xlink:show="other" /><linearGradient xmlns:xlink="http://www.w3.org/1999/xlink" xlink:href="#linearGradientF8FBFEEDF5FCDEEDFAD4E7F8E2E5E9" id="linearGradientF8FBFEEDF5FCDEEDFAD4E7F8E2E5E9_386205177" x1="0" y1="237.0" x2="0" y2="343.0" gradientUnits="userSpaceOnUse" xlink:type="simple" xlink:actuate="onLoad" xlink:show="other" /><linearGradient xmlns:xlink="http://www.w3.org/1999/xlink" xlink:href="#linearGradientF8FBFEEDF5FCDEEDFAD4E7F8E2E5E9" id="linearGradientF8FBFEEDF5FCDEEDFAD4E7F8E2E5E9_419269162" x1="0" y1="351.0" x2="0" y2="457.0" gradientUnits="userSpaceOnUse" xlink:type="simple" xlink:actuate="onLoad" xlink:show="other" /><linearGradient xmlns:xlink="http://www.w3.org/1999/xlink" xlink:href="#linearGradientF8FBFEEDF5FCDEEDFAD4E7F8E2E5E9" id="linearGradientF8FBFEEDF5FCDEEDFAD4E7F8E2E5E9_1999613150" x1="0" y1="352.0" x2="0" y2="458.0" gradientUnits="userSpaceOnUse" xlink:type="simple" xlink:actuate="onLoad" xlink:show="other" /><linearGradient xmlns:xlink="http://www.w3.org/1999/xlink" xlink:href="#linearGradientFF6666FF9696FFB6B6" id="linearGradientFF6666FF9696FFB6B6_2117605472" x1="0" y1="376.0" x2="0" y2="411.0" gradientUnits="userSpaceOnUse" xlink:type="simple" xlink:actuate="onLoad" xlink:show="other" /></defs></svg>
